<svg xmlns="http://www.w3.org/2000/svg" fill="none" viewBox="0 0 435 95" height="95" width="435">
<path fill="#111111" d="M89.2217 0C138.497 0 178.443 21.1475 178.444 47.2344L178.437 47.8457C177.819 73.6515 138.112 94.4707 89.2217 94.4707L86.9199 94.4551C38.7081 93.8085 0 72.9141 0 47.2344C0.000874897 21.1476 39.9466 0.000214329 89.2217 0ZM89.2217 3.54395C65.0439 3.54405 43.3301 8.73969 27.79 16.9668C12.0921 25.2777 3.54439 36.1504 3.54395 47.2344C3.54395 58.3187 12.0916 69.1928 27.79 77.5039C43.3301 85.731 65.0439 90.9276 89.2217 90.9277C113.4 90.9277 135.114 85.731 150.654 77.5039C166.353 69.1928 174.901 58.3187 174.901 47.2344C174.901 36.1504 166.352 25.2777 150.654 16.9668C135.114 8.73973 113.4 3.54395 89.2217 3.54395ZM67.542 17.2383C69.4655 16.6494 73.087 15.9498 74.6689 17.5166C76.6134 19.4409 73.9222 22.79 72.1406 23.9414C69.0714 25.9181 64.5573 25.598 61.2568 26.9912C55.686 38.2266 53.5044 51.3864 44.3125 60.5029C50.8294 61.8857 69.8547 65.5078 73.623 58.5469C74.5269 56.8751 78.9516 46.3141 79.3096 44.7197C79.5566 43.6104 78.9258 42.7107 78.9941 42.6318C79.3161 42.29 86.4413 41.3592 87.1455 38.4258C87.7761 39.0146 86.8566 40.3553 86.5938 41.0283C84.4968 46.496 80.0039 54.193 78.7266 59.4453C78.4217 60.7071 78.3843 61.8539 78.4736 63.1367C80.4865 65.1293 87.8549 55.4919 88.8955 53.8516C90.8453 50.7811 92.7109 46.2436 93.2627 42.7158C96.1164 41.9167 99.2339 41.134 100.811 38.4316L92.1436 62.0908C94.4086 60.4926 96.1112 58.0473 97.6143 55.7393C100.51 51.3071 102.728 44.3036 105.571 40.5654C106.233 39.6927 107.18 38.7891 108.278 38.542C109.866 38.1845 116.976 38.1845 118.563 38.542C122.657 39.4621 120.282 43.7149 118.848 45.96C116.246 50.0398 108.042 57.3641 106.612 61.0654C106.355 61.7331 106.128 62.3745 106.37 63.0947C112.813 65.6604 118.332 57.1955 121.128 52.4531C122.741 49.7246 126.809 39.2634 129.295 38.542C130.535 38.1792 138.713 38.2318 140.111 38.542C141.236 38.7944 142.313 39.7297 142.497 40.9072C143.08 44.7663 132.838 54.246 130.777 57.9053C129.668 62.8895 135.702 60.1552 138.214 59.0195C144.584 56.1436 150.465 50.4708 152.583 43.6885C153.629 43.5941 152.893 45.2087 152.74 45.6924C150.785 52.0171 144.405 59.1143 138.382 61.8271C134.902 63.3939 124.864 66.3906 123.004 61.9375C122.059 59.677 124.46 57.3058 125.784 55.5342C128.832 51.4544 135.171 45.4293 137.347 41.3389C137.683 40.708 138.067 40.3451 137.856 39.4883C130.709 38.6208 128.823 40.6818 125.349 46.1602C122.936 49.9666 118.054 61.4846 114.69 63.3623C111.548 65.1183 97.3627 65.6759 101.914 58.4678L116.304 40.792C116.756 38.7626 110.57 39.3671 109.172 39.9717C103.88 42.2535 98.8495 57.7898 93.4678 62.6426C91.6441 64.2881 88.4905 65.2134 86.9297 62.8213C85.5214 60.6607 87.7865 59.4827 87.1406 57.3643C84.7965 61.2812 77.6851 67.7577 73.7119 62.374C73.1815 61.6537 73.5598 60.4555 72.6875 60.5186C69.0874 66.591 64.9249 68.5253 57.8457 67.7314C53.4468 67.2372 43.7294 63.042 40.8545 63.1943C39.9768 63.2417 36.0872 65.834 33.9219 66.1758C31.2046 66.6068 25.0247 66.6275 24.8457 62.832C24.6302 58.2737 33.2444 58.8415 36.1455 58.9414C37.4068 58.9835 38.7996 60.0924 39.835 58.9463C47.0876 46.2335 51.7545 22.0755 67.542 17.2383ZM36.9551 61.5596C34.1329 61.7278 31.7362 60.093 28.8457 60.5293C23.7478 61.3022 25.8237 66.1594 31.9307 65.1973C32.8354 65.0548 38.0008 62.4474 36.9551 61.5537V61.5596ZM53.7725 22.6533C52.0697 26.5123 47.1195 26.0762 43.2725 27.6533C38.7895 29.483 34.8787 32.4593 31.7148 36.0713L27.5 42.6221C30.2066 30.9661 41.9686 22.7166 53.7725 22.6533ZM153.108 30.0088C154.427 30.6554 154.381 32.5108 155.379 33.5098L155.384 33.5156C156.388 34.5198 158.244 34.4727 158.885 35.7871L155.715 37.0908L153.108 41.0439C153.324 37.9474 151.164 36.2075 148.373 35.5293C150.638 34.2623 153.093 33.0265 153.108 30.0088ZM74.0225 18.4473C72.1042 14.6303 62.6179 21.9697 62.1816 25.2715C65.1196 25.4502 76.445 23.2578 74.0225 18.4473Z"></path>
<path fill="#111111" d="M238 62.9543L236.043 64.9111L219.5 48.3678L202.957 64.9111L201 62.9543L217.543 46.4111L201.089 29.9567L203.046 28L219.5 44.4543L235.954 28L237.911 29.9567L221.457 46.4111L238 62.9543Z"></path>
<path fill="#111111" d="M340.973 93.2251C320.311 93.2251 302.84 79.6077 297.026 60.8599C297.008 60.7695 297.045 60.679 297.135 60.6627C297.226 60.6446 297.316 60.6809 297.332 60.7713C303.413 77.809 320.649 90.0925 340.966 90.0925C361.284 90.0925 378.519 77.809 384.601 60.7713C384.619 60.6809 384.709 60.6446 384.805 60.6627C384.895 60.6808 384.932 60.7713 384.914 60.8599C379.1 79.6077 361.635 93.2251 340.973 93.2251Z"></path>
<path fill="#111111" d="M320.323 23.0391C320.305 23.0066 320.197 22.898 320.161 22.8727C320.034 22.7841 319.976 22.7894 319.873 22.8148C319.764 22.8401 319.746 22.8726 319.669 22.898C319.578 22.9233 319.484 22.9233 319.394 22.8916C319.209 22.8337 319.088 22.5981 318.947 22.4386C318.911 22.4838 318.838 22.5724 318.838 22.5724C318.341 22.3555 317.836 22.2596 317.294 22.4259C317.239 22.4386 317.149 22.3752 317.089 22.3553C316.892 22.7509 316.476 22.8147 316.107 22.8912C315.944 22.9238 315.781 22.9997 315.615 23.0891C315.525 23.1524 315.434 23.3507 315.34 23.4209C315.25 23.5041 315.148 23.4661 315.065 23.5547C314.79 23.8546 314.598 24.1992 314.593 24.5183C314.587 24.7671 314.503 24.9649 314.242 25.0798C314.134 25.1304 314.012 25.2389 313.962 25.3478C313.681 25.8966 313.394 26.4581 313.164 27.0389C313.074 27.2749 313.038 27.6006 312.915 27.8175C312.717 28.1812 312.806 28.5065 312.878 28.8639C312.951 29.234 313.159 30.0764 313.159 30.0764C312.003 30.1018 310.172 30.1651 308.717 30.2357C308.705 30.0506 308.341 29.4634 308.271 29.3551C308.198 29.2538 308.016 28.6977 308.379 28.315C308.506 28.1685 308.909 27.5875 308.909 27.2111C308.922 26.2794 308.538 25.2584 308.45 24.4991C308.909 23.8354 308.432 23.1655 308.468 22.4891C308.468 22.4692 308.377 22.3877 308.341 22.3425C308.813 21.7427 308.985 20.7474 308.66 20.5621C307.587 21.8831 308.213 23.6442 307.556 25.0991C307.502 25.297 307.411 25.482 307.61 25.6989C307.795 25.8902 307.466 26.6624 307.343 26.5412C307.524 26.1775 307.017 25.8585 306.775 25.5268C306.702 25.4309 306.775 25.3161 306.775 25.2139C307.189 24.7928 307.388 24.3526 306.992 23.8038C306.883 23.6501 306.919 23.4018 306.883 23.2041C307.355 23.019 307.618 22.6807 307.509 22.2596C307.401 21.8256 307.527 21.4428 307.69 21.0601C307.887 20.5878 308.099 20.1156 308.303 19.6306C308.43 19.3179 308.52 19.0181 308.297 18.7437C308.261 18.6985 308.243 18.6152 308.261 18.5844C308.51 17.9016 308.847 17.2635 309.25 16.6382C309.505 16.1596 309.798 15.7193 310.124 15.2917C305.612 19.031 301.911 23.5553 299.263 28.6411C299.227 28.699 299.173 28.7297 299.118 28.7297C299.028 28.7297 298.956 28.6537 298.956 28.5632L298.968 28.4999C302.555 20.4916 308.323 13.6957 315.655 8.84602C323.172 3.87512 331.933 1.24609 340.982 1.24609C350.03 1.24609 358.792 3.87512 366.308 8.84602C373.64 13.6957 379.409 20.4916 382.995 28.4999L383.008 28.5632C383.008 28.6519 382.936 28.7297 382.845 28.7297C382.791 28.7297 382.737 28.6971 382.7 28.6465C382.125 27.5234 381.488 26.445 380.811 25.3921C380.493 25.1432 380.18 24.9134 380.001 24.5178C379.856 24.1859 379.267 24.0777 379.006 23.7841C378.738 23.4842 378.413 23.2034 378.234 22.8523C377.87 22.1248 377.252 21.7165 376.537 21.3399C375.823 20.8613 375.255 20.1721 374.502 19.6809C374.429 19.6429 374.375 19.7442 374.321 19.8147C374.429 20.338 374.831 20.7783 375.316 21.11C375.775 21.5248 376.055 22.0927 376.669 22.3861C377.237 22.7307 377.683 23.254 378.181 23.7006L378.163 23.7332L378.072 23.8543C377.928 23.7458 377.772 23.6376 377.625 23.5291L377.589 23.5489C377.662 23.7153 377.68 23.9318 377.799 24.002C378.163 24.2444 378.226 24.6272 378.175 24.908C378.169 24.9532 378.163 24.9913 378.157 25.0293C378.145 25.0799 378.139 25.1306 378.139 25.183V25.2029C378.133 25.2409 378.133 25.2661 378.133 25.3114C378.133 25.5092 378.169 25.6943 378.223 25.8794C378.241 25.9807 378.26 26.0836 378.296 26.1921C377.952 25.9624 377.601 25.7518 377.268 25.5092C377.196 25.4514 377.196 25.2987 377.16 25.1838V25.1322C377.304 24.9025 377.683 25.049 377.995 24.9984C377.683 23.8179 376.617 23.3394 375.73 22.6055C375.316 22.2673 374.938 21.8908 374.574 21.5079C374.287 21.1951 373.981 20.8443 373.554 20.7422C373.464 20.8562 373.373 20.9464 373.312 21.0805C373.239 21.2216 373.276 21.5909 373.127 21.5591C372.789 21.4885 372.292 21.2208 371.991 21.4451C371.919 21.6115 371.985 21.9301 372.154 22.0513C372.576 22.4022 372.317 22.7404 371.991 23.0085C371.756 23.2319 371.769 23.6146 371.769 23.9145C371.769 24.0357 371.751 24.2207 371.805 24.2719C372.29 24.5847 372.028 25.0631 372.111 25.4652C372.104 25.797 372.075 26.314 371.677 26.3587C370.624 26.4473 370.215 27.3924 370.031 27.1243C369.738 26.8627 369.647 26.7797 369.455 26.5946C369.218 26.3586 369.016 26.2437 368.678 26.4933C368.515 26.6145 368.225 26.5892 367.976 26.6272C367.903 26.3975 367.867 26.1997 367.795 26.0338C367.704 25.8104 367.686 25.568 367.335 25.5105C367.227 25.4977 367.06 25.4652 367.086 25.1467C367.176 24.1001 366.735 23.3026 366.122 22.4922C366.067 22.409 365.834 22.3258 365.816 22.2241C365.762 21.9689 366.013 22.1283 366.187 22.0073C366.35 21.8933 366.174 21.6818 366.768 21.7265C367.686 21.797 368.618 21.6125 369.658 21.5286C369.09 20.699 369.002 20.0673 368.803 19.8441C368.64 19.6462 368.037 19.2635 367.538 19.0017C367.412 18.9384 367.233 18.9131 367.079 18.9185C366.703 18.9313 366.384 18.848 366.167 18.5164C366.493 18.0186 367.048 18.4531 367.495 18.2229C367.332 18.051 367.015 17.8209 367.01 17.6869C367.22 17.591 367.591 17.7882 367.808 17.8334C367.934 17.6229 368.05 17.4696 368.171 17.2719C368.117 17.1706 367.904 16.9402 367.949 16.8572C368.441 16.3531 368.491 16.5572 368.255 15.8807C368.345 15.8101 368.464 16.0786 368.593 16.2253C368.629 16.0534 368.898 15.8807 368.338 15.5616C368.302 15.5291 368.464 15.4657 368.56 15.3952C368.633 15.3445 368.554 15.2615 368.633 15.2289C368.813 15.1584 369.041 15.1909 369.099 15.1276C368.62 14.7447 368.251 14.3428 367.784 13.9918C367.446 13.7621 367.28 13.5005 367.509 13.2388C367.772 13.3853 368.039 13.5196 368.294 13.6664C368.457 13.8455 368.33 14.0429 368.633 14.1514C368.705 14.1007 369.085 14.0754 369.105 13.9976C369.141 13.909 368.85 13.7296 368.817 13.6659C368.672 13.417 368.019 12.9193 367.797 12.9128C367.517 12.9001 367.032 12.5682 366.82 12.3703C366.892 12.4336 366.693 12.5169 366.693 12.5809C366.531 13.2317 365.755 12.9828 365.507 12.5483C365.453 12.4651 365.27 12.5284 365.207 12.4524C364.767 11.9546 364.785 12.0695 364.25 11.7696C364.214 11.737 364.237 11.6485 364.214 11.5016C364.177 11.1187 363.666 10.9018 363.666 10.8061C363.666 10.7048 364.092 10.7609 364.145 10.1043C361.548 8.71316 358.817 7.5646 355.996 6.67124C355.625 6.72189 355.262 6.80504 354.956 6.94559C354.433 7.21999 353.8 7.19449 353.207 7.07945C352.919 7.0288 352.798 7.14999 352.671 7.38568C352.563 7.58356 352.27 7.59628 352.091 7.76215L352.218 8.03015C352.073 8.29822 351.892 8.45785 351.7 8.80876C351.152 8.59821 350.685 8.33008 350.117 8.23439C349.492 8.1331 349.001 7.86429 348.593 7.39851C348.153 6.91357 347.515 6.55624 347.126 6.02028C347.017 5.87377 346.999 5.63732 347.035 5.47145C347.071 5.34302 347.247 5.26717 347.419 5.22249C347.527 5.20972 347.661 5.26049 347.77 5.25506C347.878 5.24229 348.159 4.9423 348.274 4.89129C346.876 4.6934 345.467 4.54676 344.05 4.45741C344.413 4.54604 344.676 4.7381 344.842 5.07635C344.65 5.06996 344.479 5.05644 344.312 5.04378L344.299 5.11982C345.218 5.52174 346.609 6.0131 346.922 6.31933C346.94 6.40254 346.616 6.4858 345.882 6.69581C345.701 6.73379 345.435 6.37035 344.344 5.98109C344.308 5.96834 344.16 6.0644 344.163 6.06983C344.2 6.18559 344.254 6.31871 344.348 6.38889C344.699 6.61861 345.075 6.83569 345.489 7.07807C345.26 7.24991 344.807 7.11607 345.023 7.60138C344.5 7.31414 344.041 7.06531 343.581 6.81642L343.545 6.86707C343.8 7.07761 344.05 7.27558 344.305 7.4798C344.287 7.51778 344.268 7.55024 344.232 7.59365C343.435 7.43447 342.682 7.1151 341.909 6.85354C341.819 6.81556 341.609 6.54728 341.539 6.47059C341.539 6.47059 340.811 6.06848 340.466 5.96646C340.122 5.86517 339.694 5.80015 339.259 5.82004C338.825 5.83994 338.729 5.67348 338.729 5.67348C338.729 5.67348 338.874 5.40543 339.088 5.38644C339.297 5.38644 339.853 5.53297 340.186 5.55287C340.524 5.59086 341.021 5.63609 341.021 5.63609C340.985 5.48957 340.967 5.43176 340.949 5.33607C341.312 5.29085 341.676 5.2403 342.072 5.18965C341.982 4.99176 342.054 4.65996 341.645 4.94069C341.573 4.99134 341.383 4.89008 341.166 4.85209C341.293 4.76889 341.35 4.73806 341.408 4.69284C341.282 4.67294 341.128 4.66041 341.019 4.60976C340.893 4.54645 340.795 4.46319 340.701 4.36081C339.247 4.37356 337.798 4.44407 336.355 4.57775C336.54 5.05636 337.14 5.07541 337.446 5.57302C336.961 5.50247 336.477 5.36886 336.005 5.31785C335.737 5.32422 335.391 5.48421 335.136 5.45889C334.955 5.43899 334.836 5.03135 334.818 5.04419C335.028 4.83998 335.418 4.74422 335.825 4.62936C334.887 4.72523 333.956 4.85277 333.031 4.99313C330.274 5.55459 329.463 6.37142 329.074 6.76701C329.074 6.76701 329.566 7.03512 329.726 7.13714C329.599 7.34768 329.496 7.53275 329.407 7.67962C329.834 7.81348 330.965 8.18379 331.29 8.39434C331.85 9.27487 332.936 9.21115 333.829 9.51105C333.632 9.79178 333.587 10.0917 333.415 10.3534C333.379 10.4113 333.379 10.5253 333.415 10.596C333.523 10.8257 333.542 10.9916 333.683 11.2213C333.719 11.272 333.809 11.3552 333.867 11.3498C335.137 11.3172 335.054 10.9349 335.245 9.92037C335.864 9.83716 337.396 9.88787 337.556 9.14824C337.574 8.73348 337.134 8.35049 336.816 8.24847C336.834 8.21048 336.87 8.15983 336.888 8.11461C337.123 8.10185 337.724 7.86569 337.8 7.78285C337.691 7.63633 337.836 7.61654 337.637 7.38085C337.854 7.33563 337.962 7.33559 338.013 7.18944C338.026 7.15145 338.013 7.04832 337.995 6.9852C337.982 6.94721 337.989 6.90196 338.008 6.87121C338.044 6.83322 338.08 6.80796 338.153 6.81338C338.791 6.88393 339.455 6.98522 340.086 7.13879C340.374 7.222 340.724 7.36212 340.884 7.58551C341.209 8.05128 341.661 8.03219 342.07 8.19824C341.681 8.613 341.926 9.03403 342.325 9.29577C343.199 9.92759 344.125 9.4749 344.91 9.0406C345.185 9.44904 345.957 10.1574 346.263 10.5274C346.263 10.5274 346.172 10.7764 346.538 11.3889C346.921 12.0207 347.974 12.3013 348.701 12.6139C348.476 12.8499 348.592 12.9393 349.64 13.4307C349.621 13.6026 349.633 13.7817 349.513 13.8839C349.332 14.0503 349.059 14.12 348.882 14.1646C348.607 14.2478 348.346 14.1845 348.129 14.1518C347.811 14.1011 347.498 14.0813 347.185 14.2024C346.559 14.445 345.973 14.3743 345.347 14.1961C344.408 13.928 343.465 13.6984 342.514 13.4815C342.125 13.3856 341.723 13.3675 341.365 13.6605C341.257 13.7491 341.002 13.7112 340.81 13.7437C340.318 13.8197 339.074 14.2671 338.647 14.484C339.77 14.2096 340.919 13.935 342.322 13.9861C342.559 13.9988 342.782 14.0494 343.1 14.235C343.191 14.2857 343.292 14.4014 343.263 14.4965C343.25 14.5671 343.082 14.6503 342.995 14.6503C342.682 14.6756 342.369 14.6631 342.056 14.6631C342.05 14.7011 342.038 14.7336 342.038 14.7644C342.326 14.7969 342.606 14.8349 342.965 14.8729C342.76 14.9814 342.588 15.0643 342.409 15.1665C342.554 15.8302 343.091 16.098 343.768 16.2257C343.977 16.2637 344.297 16.3922 344.515 16.4682C344.885 16.2768 345.236 16.0917 345.587 15.8938C345.678 15.8432 345.797 15.8811 345.696 16.0078C345.484 16.2183 345.66 16.2056 345.605 16.3077C345.696 16.3909 345.81 16.4867 345.911 16.5757C345.947 16.6082 345.947 16.639 345.893 16.6716C345.441 16.601 345.453 16.7927 344.904 16.7095C344.867 16.7674 345.048 16.876 344.759 16.8561C343.739 16.8497 342.71 16.6897 341.721 17.0411C341.512 17.1171 341.282 17.1696 341.141 16.92C341.087 16.8368 340.996 16.722 341.014 16.6583C341.05 16.557 341.177 16.4542 341.276 16.435C341.615 16.3591 341.966 16.321 342.324 16.1734C342.306 15.9628 341.584 16.0775 340.938 16.0721C340.676 16.2763 339.772 16.244 339.196 16.1934C338.495 16.1048 337.621 16.3724 337.269 16.9016C337.215 16.9903 337.287 17.1377 337.378 17.2015C337.468 17.2847 337.792 17.3101 337.774 17.4249C336.274 17.4377 335.872 17.0996 335.056 17.1761C335.056 17.2014 335.164 17.2339 335.128 17.3172C335.236 17.3371 335.35 17.3552 335.453 17.3932C335.544 17.4258 335.766 17.4383 335.92 17.4564C335.956 17.4763 335.956 17.5017 335.92 17.5197C335.69 17.5197 335.34 17.5396 335.251 17.5197C335.046 17.4492 334.849 17.5197 334.703 17.5197C334.54 17.7366 334.269 17.7366 334.135 17.8707C333.99 17.9846 333.855 18.4386 333.605 18.3876C333.599 18.1642 333.37 18.1069 333.287 18.0047C333.25 18.03 333.196 18.0499 333.16 18.068C333.415 18.8657 332.585 18.8211 332.362 19.2805C332.272 19.3438 332.29 19.2172 332.254 19.1973C332.344 19.0833 332.344 18.993 332.398 18.9356C332.272 18.7819 332.398 18.4379 332.398 18.2147C332.362 18.1514 332.236 18.1695 332.201 18.2979C332.093 18.668 331.946 18.9678 332.02 19.3508C332.225 19.7655 332.027 20.1804 331.561 20.2952C331.434 20.3332 331.19 20.2952 331.255 20.5568C331.255 20.5631 331.074 20.6454 330.968 20.6454C330.362 20.639 330.069 20.7412 329.761 21.0091C328.906 20.9259 328.332 21.5771 327.572 21.7556C327.164 21.8515 326.762 22.1704 326.507 22.4895C325.984 23.2872 326.38 24.4038 326.214 25.2971C326.142 25.6992 325.709 26.1458 325.671 26.4586C325.671 26.4586 325.599 26.465 325.545 26.4714C325.418 26.4778 325.078 26.5926 324.964 26.4388C325.109 26.1581 324.742 25.6603 324.633 25.2327C324.525 24.8308 324.525 24.2947 324.705 23.9117C324.814 23.6883 324.814 23.6373 324.597 23.446C324.543 23.4008 324.506 23.3374 324.488 23.2867C324.344 22.8846 324.195 22.7699 323.754 22.9551C323.544 23.0564 323.365 23.0184 323.219 22.77C323.11 22.591 322.81 22.4764 322.58 22.3744C322.318 22.2731 321.987 22.5335 321.725 22.1893C321.634 22.0754 320.882 22.2907 320.614 22.3178C320.578 22.3377 320.704 22.5667 320.542 22.656C320.505 22.6886 320.433 22.7066 320.451 22.7645C320.451 22.7844 320.541 22.9364 320.505 22.9751C320.433 23.0384 320.397 23.0385 320.397 23.0385L320.323 23.0391ZM370.677 14.8777C370.927 14.3927 370.364 14.1312 370.013 13.9078C369.905 13.8445 369.733 13.8824 369.528 13.8625C369.637 14.0163 369.673 14.0986 369.751 14.1943C369.66 14.2323 369.57 14.2648 369.489 14.2956C369.525 14.4095 369.543 14.5125 369.597 14.6785C369.355 14.6152 369.188 14.5645 369.016 14.5247L368.98 14.5953C369.223 14.7111 369.465 14.8313 369.74 14.959C369.849 14.6654 370.008 14.5825 370.275 14.8758C370.33 14.9463 370.652 14.9283 370.677 14.8777Z"></path>
<path fill="#111111" d="M340.839 4.6548C340.947 5.17176 340.092 4.89088 339.753 4.85904C340.117 4.45694 340.5 4.67397 340.839 4.6548Z" clip-rule="evenodd" fill-rule="evenodd"></path>
<path fill="#111111" d="M349.32 14.5965C348.529 14.7051 348.56 15.0049 348.471 15.2091C348.746 15.2471 349.186 15.1585 349.435 15.1892L349.472 15.2778C349.417 15.3032 349.381 15.3285 349.247 15.3918C349.861 15.5897 350.409 15.7556 350.977 15.9215C350.922 16.0879 350.696 16.3044 350.645 16.4384C350.958 16.6175 351.213 16.5145 351.232 16.5669C351.268 16.6176 350.873 16.7903 350.727 16.8923L350.763 16.9555C350.926 16.9049 351.286 16.7578 351.338 16.7892C351.483 16.8978 351.157 16.9358 351.083 17.1467C351.264 17.1213 351.434 17.058 351.523 17.0381C351.559 17.0887 351.487 17.134 351.577 17.2045C351.284 17.747 351.315 17.7533 350.971 17.4852C350.935 17.4526 351.098 17.3387 350.958 17.2492C350.904 17.2166 350.868 17.3378 350.741 17.3902C350.651 17.3523 350.561 17.3324 350.448 17.307C350.485 17.1985 350.729 17.0964 350.575 16.9369C350.09 17.0129 349.586 17.0581 349.146 17.0382C349.038 17.0129 349.074 16.9369 349.14 16.917C349.402 16.9234 349.784 16.8537 349.766 16.8157C349.172 16.6367 348.675 16.5222 348.132 16.3563C347.622 16.1899 346.754 16.3183 346.557 15.9734C346.376 15.6543 347.188 15.0546 348.049 14.576C348.233 14.462 348.744 14.3654 349.243 14.3462C349.297 14.3715 349.193 14.5455 349.32 14.5965Z"></path>
<path fill="#111111" d="M374.289 21.6162C374.47 22.1012 374.761 22.3884 374.756 22.6692C374.354 22.4713 374.142 22.2481 374.15 21.98C374.156 21.866 374.289 21.8714 374.289 21.6162Z" clip-rule="evenodd" fill-rule="evenodd"></path>
<path fill="#111111" d="M342.702 15.4713C342.775 15.446 342.883 15.3121 342.944 15.2607C343.194 15.8605 343.844 15.6308 344.285 15.9244C344.062 15.975 343.863 16.0257 343.659 16.0781C343.116 15.8421 343.066 15.8031 342.702 15.4713Z"></path>
<path fill="#111111" d="M343.218 13.8955C343.748 13.7997 344.399 14.0934 344.884 14.5655L344.83 14.6794C344.096 14.4815 343.562 14.1316 343.218 13.8955Z"></path>
<path fill="#111111" d="M361.341 16.607C361.413 16.3902 361.377 16.1605 361.305 16.0583C361.062 15.9118 361.088 15.9045 360.845 15.7583C360.858 15.7203 360.809 15.5542 360.809 15.5095C361.019 15.4082 361.071 15.3377 361.211 15.2225C361.428 14.9481 361.12 14.9225 361.174 14.846C361.437 14.5143 361.793 14.3164 362.131 14.2334C362.294 14.3799 362.457 14.5269 362.667 14.712C362.66 14.7248 362.612 14.8585 362.576 14.9226C362.793 15.1268 363.132 15.3628 363.246 15.9434C362.703 16.422 362.231 16.8687 361.912 17.0411C361.75 17.1423 361.516 17.1368 361.402 17.0538C361.33 16.9904 361.268 16.8747 361.341 16.607Z"></path>
<path fill="#111111" d="M362.797 14.3987C362.761 14.2975 362.743 14.2072 362.707 14.1116C362.598 14.1441 362.562 14.0791 362.356 14.1497C362.464 13.9583 362.483 13.9518 362.548 13.8498L362.439 13.9076C362.349 13.7792 362.294 13.6268 362.19 13.5311C362.045 13.3973 361.851 13.3143 361.737 13.2504C361.864 13.0207 361.992 12.8165 362.126 12.606C362.318 12.606 362.58 12.606 362.911 12.5996C362.624 13.0462 362.766 13.1547 363.211 13.0845C363.595 13.0267 363.83 13.1677 363.805 13.5823C363.792 13.7108 363.823 13.8439 363.823 13.8822C364.691 14.514 365.744 14.8265 366.299 15.7582C366.688 15.3945 367.306 15.6949 367.129 16.6198C367.238 16.6577 367.346 16.7085 367.455 16.7609C367.448 16.8062 367.448 16.8495 367.448 16.8567C367.285 17.1503 365.956 17.0992 365.406 17.3354C365.113 17.4566 365.298 16.9781 364.43 17.3986C364.813 16.5563 364.99 16.8052 365.195 16.6265C364.907 16.5686 364.576 16.4926 364.142 16.3904C364.455 16.2186 364.723 15.8098 364.269 15.7778C364.196 15.7714 364.196 15.6114 364.142 15.4971H364.627C364.663 15.4645 364.681 15.4266 364.717 15.4085C364.5 15.0448 364.359 14.9298 364.028 14.6427C363.715 14.63 363.134 15.0128 363.218 14.1962C363.037 14.2794 362.924 14.3284 362.797 14.3987L362.779 14.4004Z"></path>
<path fill="#111111" d="M375.284 24.4874C375.176 23.8684 374.805 23.6705 374.608 23.2494C374.572 23.1734 374.734 23.0197 374.825 22.873C375.239 23.3133 375.559 23.8876 375.603 24.2195C375.621 24.4174 375.494 24.2521 375.393 24.5322C375.357 24.5195 375.284 24.5199 375.284 24.4874Z"></path>
<path fill="#111111" d="M338.887 75.3645C338.887 75.2017 338.548 75.2922 338.319 75.3284C338.246 75.3349 338.51 75.4732 337.642 76.0248C337.769 76.0248 338.376 76.0375 338.172 76.1333C337.476 76.6941 336.786 77.0648 336.034 77.5242C335.962 77.5604 335.85 77.5786 335.792 77.5605C335.421 77.3182 334.949 77.5605 334.58 77.063C334.435 76.8532 334.197 76.8822 334.103 76.8207C334.066 76.808 333.905 76.4372 333.848 76.4698C333.829 76.4879 333.656 76.5783 333.667 76.6326C333.685 76.705 333.793 76.837 333.793 76.837C333.974 77.0342 334.26 77.2512 334.406 77.443C334.425 77.4791 334.393 77.64 334.298 77.7938C334.262 77.8661 334.262 78.0488 334.352 78.2152C334.388 78.3057 334.569 78.2695 334.544 78.4323C334.49 78.7633 333.849 79.23 333.471 79.2101C332.992 79.2037 332.514 79.1559 332.042 79.1016C331.641 79.0473 331.295 79.344 331.404 79.7455C331.476 79.9752 331.391 80.0458 331.223 80.0331C330.789 79.9969 330.393 79.9065 330.004 79.675C329.949 80.3388 330.01 80.4093 330.559 80.5106C330.649 80.5287 330.722 80.7151 330.839 80.8544C330.451 80.981 329.928 80.8906 330.036 81.4097C330.072 81.5363 329.982 81.69 329.946 81.8238C329.716 81.9143 329.277 81.9144 329.193 82.0663C329.085 82.6144 329.66 82.5383 330.054 82.8006C330.072 82.9634 330.072 83.119 330.036 83.1841C329.91 83.3288 329.589 83.5476 329.436 83.6634C329.448 83.8479 329.472 83.989 329.4 84.065C329.291 84.0831 329.125 84.1555 329.011 84.1736C329.083 84.5372 329.324 84.7741 329.412 84.9206C329.399 84.993 329.125 84.8482 328.946 84.8301L329.521 85.2064C329.852 85.3982 329.712 85.4614 330.025 85.749C330.318 86.0113 330.465 86.0619 330.452 86.0945C330.434 86.1487 330.507 86.4256 329.609 86.1308C328.544 85.7853 328.269 85.6513 327.019 84.4394C327.019 84.4394 326.349 83.839 325.895 82.5762C325.859 82.4858 325.751 82.3718 325.805 82.2958C325.841 82.2415 325.913 82.2235 326.055 82.2416C326.042 82.115 326.067 81.9159 326 81.8652C325.892 81.7748 325.521 81.9739 325.503 81.7206C325.647 81.3444 325.713 81.4276 325.778 81.064C325.796 80.9555 325.669 80.8271 325.669 80.2989C325.669 80.2085 325.814 80.1722 325.879 80.2265C325.988 80.4562 326.076 80.7745 326.237 80.921C326.056 79.8231 326.201 80.1433 326.092 79.3384C325.966 79.1756 325.912 79.266 325.87 79.266V80.0511C325.552 80.0149 325.436 79.9064 325.507 79.4198C325.519 79.3475 325.633 79.4017 325.513 79.1702C325.404 78.973 325.44 78.6655 325.44 78.5009C325.652 77.9329 325.458 77.4102 325.223 76.9255C324.91 76.3249 325.23 76.5111 325.296 76.2615C325.614 75.2142 326.113 74.1878 325.819 73.02C325.728 72.689 325.551 72.3056 325.873 71.9673C325.909 71.9311 325.891 71.8225 325.873 71.7574C325.681 71.1967 325.945 70.7047 326.064 70.182C326.137 69.8311 326.173 69.4674 326.209 69.1093C326.282 68.5214 326.354 67.9227 326.3 67.3348C326.312 66.9206 326.287 66.7216 326.336 66.4087C326.372 66.1338 326.585 65.8734 326.598 65.5912C326.611 64.9527 326.562 64.3141 326.526 63.6768C326.519 63.5683 326.49 63.4273 326.417 63.3459C325.632 62.4017 324.847 61.4698 323.782 60.8445C323.017 60.3923 322.666 59.6126 322.25 58.6813C322.177 58.5366 322.105 58.3303 322.007 58.1133C328.458 57.909 334.897 57.7942 341.323 57.8005C346.153 57.8005 351.782 57.8331 356.618 57.9471C356.582 58.6108 356.546 59.3763 356.546 59.504C356.474 60.4229 356.316 60.4736 355.915 61.3163C355.569 61.9856 354.996 62.2859 354.491 62.6694C353.706 63.2699 352.787 63.6769 352.073 64.3733C351.818 64.5777 351.588 64.8959 351.3 64.9791C350.094 65.2921 350.273 66.4334 349.833 67.3019C349.424 68.228 348.895 68.635 348.341 69.5801C348.099 69.9112 347.639 70.1155 347.294 70.3651C347.051 70.9584 346.503 71.1755 346.024 71.4884C345.584 71.6151 345.1 71.3257 344.646 71.2769C344.219 71.2045 343.689 71.5066 343.535 71.8195C342.674 71.6748 342.144 72.0546 341.417 72.3874C340.861 72.6225 340.727 73.1218 340.74 73.6192C340.753 74.0027 340.595 74.2198 340.326 74.3663C339.758 74.6793 339.349 75.1315 338.897 75.5981C338.705 75.7953 338.551 75.8151 338.526 75.8151C338.52 75.8214 338.371 75.8348 338.887 75.3645Z"></path>
<path fill="#111111" d="M407.675 57.0187C407.139 55.6085 406.597 54.2109 406.054 52.8135C403.08 52.5709 400.1 52.3477 397.126 52.137L395.499 56.0997C393.693 55.9785 391.887 55.8571 390.081 55.7551C393.163 48.7486 396.239 41.7485 399.321 34.7803C400.073 34.8382 400.833 34.8888 401.586 34.9467C402.346 35.0046 403.098 35.0552 403.858 35.1185C406.934 42.5589 410.009 50.0185 413.085 57.4844C411.285 57.318 409.48 57.1717 407.675 57.0187ZM398.92 47.766C400.7 47.8999 402.48 48.034 404.261 48.1744C403.367 45.8708 402.481 43.5737 401.587 41.2701C400.701 43.4397 399.807 45.6028 398.92 47.766Z"></path>
<path fill="#111111" d="M316.527 54.7086C313.566 47.6 310.605 40.5233 307.644 33.4531C309.533 33.3698 311.428 33.294 313.317 33.2234C315.026 37.6774 316.737 42.1315 318.447 46.5855C320.158 42.0294 321.868 37.4732 323.578 32.9234C325.473 32.8782 327.362 32.8402 329.257 32.8076C326.29 40.0502 323.329 47.3119 320.368 54.5928C319.73 54.6127 319.086 54.6254 318.447 54.6434C317.809 54.6633 317.172 54.6905 316.527 54.7086Z"></path>
<path fill="#111111" d="M260.111 49.904C260.111 52.9797 261.26 54.4218 263.946 54.1474C266.639 53.8794 267.788 52.2203 267.788 49.1446V36.1846C269.492 36.0182 271.202 35.8654 272.906 35.7188V48.7619C272.906 54.7602 269.913 58.1804 263.946 58.7675C257.986 59.3608 255 56.534 255 50.5358V37.4928C256.704 37.3077 258.408 37.1227 260.111 36.9503"></path>
<path fill="#111111" d="M381.755 41.7168C385.086 43.0888 389.642 44.7606 389.642 49.2082C389.642 53.758 386.394 56.1573 380.715 55.8765C377.365 55.7101 373.861 53.7132 372.866 53.1134C372.83 53.0935 372.793 53.0755 372.757 53.0502V47.9452C372.866 48.0085 372.962 48.0664 373.063 48.1431C376.119 50.0766 378.646 51.1678 380.707 51.423C383.164 51.7358 384.306 51.0019 384.306 49.5278C384.306 48.9152 383.796 48.3091 382.691 47.7666C382.06 47.4476 381.3 47.1347 380.496 46.803C376.923 45.3545 372.481 43.938 372.481 38.9926C372.481 34.6215 376.335 32.822 380.158 33.007C383.08 33.1409 386.565 34.6151 388.198 35.5659C388.234 35.5858 388.27 35.6111 388.307 35.6292V40.734C388.198 40.6707 388.102 40.6056 388.001 40.5362C386.993 39.8917 383.445 37.7603 380.159 37.6072C378.505 37.5312 377.791 38.1305 377.791 38.9025C377.791 39.4513 378.321 40.1022 379.412 40.6702C380.056 41.0147 380.886 41.353 381.755 41.7168Z"></path>
<path fill="#111111" d="M365.501 46.3047C367.198 49.1379 368.89 51.9711 370.587 54.8107C368.673 54.7402 366.752 54.6768 364.838 54.6257C363.338 52.0158 361.839 49.4124 360.333 46.8216C359.164 46.7963 357.997 46.7709 356.83 46.751V54.4275C355.151 54.3949 353.473 54.3769 351.795 54.357V32.7695C355.649 32.8075 359.503 32.8908 363.357 32.993C367.371 33.1015 369.656 35.8453 369.656 39.9739C369.656 44.0068 367.448 45.641 365.501 46.3047ZM356.804 42.2463C358.374 42.2843 359.95 42.3168 361.52 42.3476C363.874 42.4109 364.347 41.0969 364.347 39.9865C364.347 38.8762 363.867 37.5298 361.52 37.4724C359.95 37.4272 358.374 37.3965 356.804 37.3639"></path>
<path fill="#111111" d="M300.428 55.3914C300.415 48.1935 300.41 41.0019 300.41 33.804C302.106 33.7081 303.811 33.625 305.508 33.5552V55.1361C303.817 55.2193 302.119 55.3026 300.428 55.3914Z"></path>
<path fill="#111111" d="M336.405 45.6217V49.7568C340.265 49.7242 344.119 49.7242 347.98 49.7568V54.3128C342.46 54.2748 336.941 54.2929 331.427 54.3634C331.415 47.1655 331.409 39.9741 331.409 32.7761C336.891 32.7056 342.378 32.6875 347.86 32.7255V37.2561C344.044 37.2308 340.228 37.2308 336.412 37.2561V41.072C339.003 41.0521 341.593 41.0466 344.184 41.052V45.6146C341.593 45.6083 338.995 45.6153 336.405 45.6217Z"></path>
<path fill="#111111" d="M291.098 34.3399C292.789 34.2386 294.48 34.1357 296.171 34.04V55.6275C294.787 55.7034 293.408 55.7866 292.023 55.8763L291.969 55.7931C288.714 51.6708 285.46 47.5679 282.212 43.4776V56.5588C280.521 56.6873 278.83 56.8205 277.139 56.9545V35.3671C278.78 35.2386 280.419 35.1055 282.059 34.9841L282.113 35.0548C285.106 38.8069 288.099 42.5845 291.098 46.3685"></path>
<path fill="#111111" d="M415.229 36.0952C416.92 36.249 418.605 36.4143 420.296 36.5802V53.6433C423.199 53.9306 426.103 54.2303 429 54.5559V59.0801C424.424 58.5754 419.843 58.1038 415.255 57.6825C415.248 50.491 415.229 43.2931 415.229 36.0952Z"></path>
</svg>
