<svg xmlns="http://www.w3.org/2000/svg" fill="none" viewBox="0 0 774 320" height="320" width="774">
<path fill="#0075DA" d="M286.902 16C445.354 16.0001 573.807 84.0028 573.809 167.889L573.782 169.854C571.796 252.836 444.116 319.782 286.902 319.782L279.501 319.73C124.47 317.652 0 250.465 0 167.889C0.00159778 84.0032 128.452 16.0007 286.902 16ZM286.902 27.3945C209.156 27.3949 139.333 44.1043 89.3623 70.5596C38.883 97.2844 11.3953 132.246 11.3945 167.889C11.3945 203.532 38.8818 238.497 89.3623 265.223C139.333 291.678 209.156 308.387 286.902 308.388C364.649 308.388 434.475 291.678 484.446 265.223C534.927 238.497 562.414 203.532 562.414 167.889C562.413 132.246 534.925 97.2844 484.446 70.5596C434.475 44.1042 364.649 27.3946 286.902 27.3945ZM217.188 71.4297C223.374 69.5362 235.019 67.2871 240.105 72.3252C246.358 78.5129 237.706 89.2829 231.977 92.9854C222.107 99.3421 207.59 98.3108 196.977 102.791C179.063 138.92 172.049 181.236 142.491 210.552C163.447 214.998 224.625 226.647 236.742 204.263C239.649 198.886 253.879 164.921 255.028 159.799C255.822 156.232 253.794 153.341 254.014 153.087C255.045 151.988 277.961 148.995 280.226 139.562C282.254 141.455 279.296 145.767 278.451 147.931C271.708 165.513 257.259 190.264 253.152 207.153C252.172 211.211 252.054 214.896 252.341 219.021C258.813 225.429 282.507 194.44 285.854 189.165C292.123 179.292 298.123 164.702 299.897 153.357C309.074 150.788 319.095 148.269 324.165 139.579L296.298 215.657C303.582 210.518 309.057 202.656 313.891 195.234C323.202 180.982 330.334 158.463 339.477 146.442C341.606 143.636 344.649 140.728 348.181 139.934C353.285 138.784 376.148 138.784 381.253 139.934C394.418 142.892 386.78 156.57 382.166 163.789C373.801 176.908 347.42 200.458 342.823 212.36C341.995 214.507 341.269 216.571 342.046 218.887C362.765 227.137 380.51 199.917 389.501 184.668C394.689 175.893 407.769 142.25 415.763 139.934C419.751 138.767 446.047 138.936 450.543 139.934C454.16 140.745 457.624 143.755 458.216 147.542C460.091 159.951 427.154 190.433 420.529 202.2C416.963 218.227 436.364 209.436 444.442 205.784C464.925 196.536 483.836 178.294 490.646 156.485C494.01 156.181 491.643 161.371 491.153 162.927C484.866 183.265 464.351 206.089 444.983 214.812C433.796 219.851 401.517 229.487 395.534 215.167C392.492 207.897 400.215 200.273 404.474 194.575C414.276 181.456 434.657 162.081 441.653 148.928C442.735 146.899 443.969 145.733 443.293 142.978C420.309 140.188 414.242 146.815 403.071 164.432C395.314 176.672 379.614 213.713 368.798 219.749C358.691 225.396 313.08 227.187 327.715 204.009L373.986 147.17C375.44 140.644 355.55 142.588 351.054 144.532C334.036 151.87 317.862 201.828 300.557 217.433C294.692 222.724 284.553 225.7 279.533 218.008C275.004 211.059 282.287 207.272 280.209 200.459C272.672 213.054 249.806 233.882 237.029 216.57C235.323 214.254 236.539 210.4 233.734 210.603C222.158 230.129 208.773 236.351 186.009 233.798C171.864 232.209 140.615 218.718 131.371 219.208C128.549 219.36 116.043 227.695 109.08 228.794C100.343 230.18 80.4681 230.247 79.8936 218.041C79.2011 203.384 106.9 205.209 116.229 205.53C120.284 205.666 124.763 209.233 128.093 205.548C151.415 164.668 166.422 86.9839 217.188 71.4297ZM118.831 213.95C109.756 214.491 102.05 209.234 92.7549 210.637C76.3621 213.122 83.0373 228.743 102.675 225.649C105.582 225.193 122.194 216.807 118.831 213.933V213.95ZM172.913 88.8428C167.438 101.252 151.518 99.8491 139.147 104.921C124.732 110.804 112.158 120.374 101.984 131.988L88.4307 153.054C97.1341 115.572 134.956 89.0457 172.913 88.8428ZM492.338 112.495C496.58 114.575 496.428 120.543 499.639 123.755L499.655 123.771C502.883 127.001 508.849 126.849 510.911 131.075L500.72 135.268L492.338 147.981C493.031 138.024 486.085 132.428 477.111 130.247C484.395 126.173 492.287 122.199 492.338 112.495ZM238.026 75.3174C231.857 63.0443 201.354 86.6456 199.951 97.2627C209.398 97.8374 245.817 90.7866 238.026 75.3174Z"></path>
<path fill="#0075DA" d="M619.666 0C643.323 0 653.787 11.8014 653.787 31.773V111.206H625.58V34.0425C625.58 30.8652 625.125 27.234 621.031 27.234H618.301C614.207 27.234 613.752 30.8652 613.752 34.0425V138.894H653.787V319.092H638.774L632.404 308.652C629.22 315.461 622.85 320 611.477 320C593.734 320 586 310.922 586 295.035V31.773C586 13.617 595.099 0 619.666 0ZM625.58 165.674H613.752V286.411C613.752 289.589 614.207 293.22 618.301 293.22H621.031C625.125 293.22 625.58 289.589 625.58 286.411V165.674Z"></path>
<path fill="#0075DA" d="M699.192 0C727.854 0 733.313 11.8014 733.313 31.773V288.227C733.313 308.652 727.854 320 699.192 320C669.621 320 665.526 306.837 665.526 288.227V31.773C665.526 13.617 669.621 0 699.192 0ZM705.107 286.411V34.0425C705.107 30.8652 704.652 27.234 700.557 27.234H697.827C693.733 27.234 693.278 30.8652 693.278 34.0425V286.411C693.278 289.589 693.733 293.22 697.827 293.22H700.557C704.652 293.22 705.107 289.589 705.107 286.411Z"></path>
<path fill="#0075DA" d="M747.782 251.007L745.053 1.36168H773.259L770.53 251.007H747.782ZM745.053 319.092V273.248H773.259V319.092H745.053Z"></path>
</svg>
