<svg xmlns="http://www.w3.org/2000/svg" fill="none" viewBox="0 0 108 58" height="58" width="108">
<path fill="white" d="M53.874 0C83.6279 0 107.749 12.7695 107.749 28.5215L107.744 28.8906C107.371 44.4728 83.3955 57.0439 53.874 57.0439L52.4844 57.0342C23.3728 56.6438 0 44.0276 0 28.5215C0.000294007 12.7696 24.1204 0.000125532 53.874 0ZM53.874 2.13965C39.2749 2.13971 26.1638 5.27738 16.7803 10.2451C7.30132 15.2635 2.1398 21.8286 2.13965 28.5215C2.13965 35.2145 7.30108 41.7804 16.7803 46.7988C26.1638 51.7666 39.2749 54.9042 53.874 54.9043C68.4733 54.9043 81.5852 51.7666 90.9688 46.7988C100.448 41.7804 105.609 35.2145 105.609 28.5215C105.609 21.8286 100.448 15.2635 90.9688 10.2451C81.5852 5.27733 68.4733 2.13965 53.874 2.13965ZM40.7832 10.4082C41.9447 10.0526 44.1317 9.6311 45.0869 10.5771C46.2605 11.7391 44.6363 13.7608 43.5605 14.4561C41.7073 15.6497 38.9812 15.4566 36.9883 16.2979C33.6245 23.082 32.3071 31.0284 26.7568 36.5332C30.6919 37.3681 42.1797 39.5548 44.4551 35.3516C45.001 34.3418 47.6729 27.9639 47.8887 27.002C48.0374 26.3333 47.6583 25.7912 47.6982 25.7422C47.8918 25.5358 52.1949 24.9736 52.6201 23.2021C53.0009 23.5576 52.4459 24.367 52.2871 24.7734C51.0209 28.075 48.3083 32.7231 47.5371 35.8945C47.3531 36.6564 47.3308 37.3485 47.3848 38.123C48.6003 39.3258 53.0494 33.5071 53.6777 32.5166C54.855 30.6626 55.9812 27.923 56.3145 25.793C58.0376 25.3104 59.9191 24.8369 60.8711 23.2051L55.6387 37.4912C57.0063 36.5261 58.0348 35.0498 58.9424 33.6562C60.6909 30.98 62.0303 26.7512 63.7471 24.4941C64.1469 23.9673 64.7178 23.4217 65.3809 23.2725C66.3392 23.0566 70.6334 23.0566 71.5918 23.2725C74.0633 23.8282 72.629 26.3964 71.7627 27.752C70.1917 30.2154 65.2385 34.6371 64.375 36.8721C64.2195 37.2752 64.0835 37.6627 64.2295 38.0977C68.12 39.6465 71.4514 34.5353 73.1396 31.6719C74.1139 30.0241 76.5703 23.7083 78.0713 23.2725C78.8202 23.0534 83.7584 23.0852 84.6025 23.2725C85.2816 23.4249 85.9319 23.9901 86.043 24.7012C86.3946 27.0316 80.2107 32.7554 78.9668 34.9648C78.2975 37.974 81.9402 36.3234 83.457 35.6377C87.3032 33.9012 90.8539 30.4752 92.1328 26.3799C92.7643 26.3227 92.3205 27.2978 92.2285 27.5898C91.048 31.4089 87.1953 35.6949 83.5586 37.333C81.4578 38.279 75.397 40.0881 74.2734 37.3994C73.7022 36.0343 75.1524 34.6021 75.9521 33.5322C77.7929 31.0687 81.6199 27.4307 82.9336 24.9609C83.1366 24.5802 83.368 24.361 83.2412 23.8438C78.9254 23.3199 77.786 24.5642 75.6885 27.8721C74.2319 30.1704 71.2839 37.126 69.2529 38.2598C67.3552 39.3201 58.7899 39.6562 61.5381 35.3037L70.2266 24.6309C70.4994 23.4056 66.7657 23.7707 65.9209 24.1357C62.7252 25.5135 59.6881 34.895 56.4385 37.8252C55.3373 38.8188 53.4327 39.3771 52.4902 37.9326C51.64 36.628 53.0073 35.9169 52.6172 34.6377C51.2017 37.0028 46.9078 40.9138 44.5088 37.6631C44.1884 37.2282 44.4171 36.5041 43.8906 36.542C41.7168 40.2087 39.2033 41.3768 34.9287 40.8975C32.2726 40.599 26.405 38.0662 24.6689 38.1582C24.139 38.1868 21.7909 39.7514 20.4834 39.958C18.8428 40.2183 15.1112 40.2312 15.0029 37.9395C14.8728 35.1871 20.0732 35.5295 21.8252 35.5898C22.5868 35.6152 23.4276 36.2847 24.0527 35.5928C28.432 27.9165 31.2504 13.3291 40.7832 10.4082ZM22.3145 37.1709C20.6104 37.2725 19.1632 36.2855 17.418 36.5488C14.3398 37.0155 15.5928 39.949 19.2803 39.3682C19.826 39.2825 22.9445 37.7079 22.3145 37.168V37.1709ZM32.4697 13.6787C31.4415 16.0087 28.4518 15.745 26.1289 16.6973C23.422 17.802 21.0608 19.5993 19.1504 21.7803L16.6055 25.7354C18.24 18.6974 25.3423 13.7168 32.4697 13.6787ZM92.4502 18.1201C93.2467 18.5106 93.2183 19.6312 93.8213 20.2344L93.8242 20.2373C94.4303 20.8437 95.5513 20.8148 95.9385 21.6084L94.0244 22.3955L92.4502 24.7832C92.5802 22.9134 91.2759 21.8626 89.5908 21.4531C90.9585 20.6881 92.4405 19.9421 92.4502 18.1201ZM44.6963 11.1387C43.5379 8.83397 37.8103 13.2661 37.5469 15.2598C39.3212 15.3676 46.1592 14.0434 44.6963 11.1387Z"></path>
</svg>
